<svg xmlns="http://www.w3.org/2000/svg" width="375" viewBox="0 0 375 375" height="375" version="1.0"><path fill="#FFF" d="M-37.5 -37.5H412.5V412.5H-37.5z"/><path fill="#FFF" d="M-37.5 -37.5H412.5V412.5H-37.5z"/><path fill="#FFFEFE" d="M-37.5 -37.5H412.5V412.5H-37.5z"/><g fill="#FFFEFE"><g><g><path d="M 12.929688 0 L 19.289062 0 L 19.289062 -0.269531 L 11.160156 -10.558594 L 18.601562 -20.699219 L 18.601562 -21 L 12.511719 -21 L 6.691406 -12.839844 L 6.691406 -21 L 1.558594 -21 L 1.558594 0 L 6.691406 0 L 6.691406 -8.128906 Z M 12.929688 0" transform="translate(58.676 175.57)"/></g></g></g><g fill="#FFFEFE"><g><g><path d="M 13.378906 0 L 13.378906 -4.589844 L 9.898438 -4.589844 L 9.898438 -16.441406 L 13.378906 -16.441406 L 13.378906 -21.121094 L 1.289062 -21.121094 L 1.289062 -16.441406 L 4.769531 -16.441406 L 4.769531 -4.589844 L 1.289062 -4.589844 L 1.289062 0 Z M 13.378906 0" transform="translate(78.416 175.57)"/></g></g></g><g fill="#FFFEFE"><g><g><path d="M 17.429688 -21.238281 L 0.988281 -21.238281 L 0.988281 -16.441406 L 6.660156 -16.441406 L 6.660156 0 L 11.789062 0 L 11.789062 -16.441406 L 17.429688 -16.441406 Z M 17.429688 -21.238281" transform="translate(92.936 175.57)"/></g></g></g><g fill="#FFFEFE"><g><g><path d="M 6.148438 -10.46875 C 6.148438 -14.460938 9.03125 -16.441406 11.910156 -16.441406 C 14.308594 -16.441406 16.738281 -15.058594 17.429688 -12.269531 L 22.621094 -12.269531 C 21.960938 -17.671875 17.308594 -21.328125 11.910156 -21.328125 C 5.910156 -21.328125 1.050781 -16.648438 1.050781 -10.46875 C 1.050781 -4.289062 5.910156 0.300781 11.910156 0.300781 C 17.371094 0.300781 21.871094 -3.328125 22.648438 -8.820312 L 17.460938 -8.820312 C 16.800781 -5.96875 14.371094 -4.53125 11.910156 -4.53125 C 9.03125 -4.53125 6.148438 -6.511719 6.148438 -10.46875 Z M 6.148438 -10.46875" transform="translate(111.746 175.57)"/></g></g></g><g fill="#FFFEFE"><g><g><path d="M 17.878906 0 L 17.878906 -21 L 12.75 -21 L 12.75 -13.078125 L 6.628906 -13.078125 L 6.628906 -21 L 1.5 -21 L 1.5 0 L 6.628906 0 L 6.628906 -8.128906 L 12.75 -8.128906 L 12.75 0 Z M 17.878906 0" transform="translate(135.356 175.57)"/></g></g></g><g fill="#FFFEFE"><g><g><path d="M 1.5 -21.179688 L 1.5 0 L 15.359375 0 L 15.359375 -4.949219 L 6.660156 -4.949219 L 6.660156 -8.308594 L 15.148438 -8.308594 L 15.148438 -13.289062 L 6.660156 -13.289062 L 6.660156 -16.230469 L 15.328125 -16.230469 L 15.328125 -21.179688 Z M 1.5 -21.179688" transform="translate(155.036 175.57)"/></g></g></g><g fill="#FFFEFE"><g><g><path d="M 12.71875 -21 L 12.71875 -10.5 L 5.460938 -21 L 1.5 -21 L 1.5 0 L 6.601562 0 L 6.601562 -10.230469 L 13.769531 0 L 17.789062 0 L 17.789062 -21 Z M 12.71875 -21" transform="translate(171.776 175.57)"/></g></g></g><g fill="#FFFEFE"><g><g><path d="M 11.910156 -14.371094 L 17.070312 -14.371094 C 17.070312 -19.199219 13.019531 -21.300781 9.269531 -21.300781 C 4.800781 -21.300781 1.019531 -18.539062 1.261719 -13.921875 L 1.261719 -13.949219 C 1.648438 -9.121094 5.671875 -8.371094 9.058594 -8.039062 C 9.839844 -7.949219 12.238281 -7.890625 12.238281 -6.390625 C 12.238281 -5.191406 10.890625 -4.710938 9.210938 -4.710938 C 8.039062 -4.710938 6.300781 -5.101562 6.300781 -7.171875 L 1.109375 -7.171875 C 1.109375 -1.828125 5.761719 0.269531 9.179688 0.269531 C 13.171875 0.269531 17.429688 -2.25 17.429688 -6.628906 C 17.429688 -7.078125 17.371094 -7.621094 17.28125 -8.101562 C 16.378906 -11.878906 12.628906 -12.660156 9.660156 -13.050781 C 8.96875 -13.109375 6.480469 -13.140625 6.480469 -14.699219 C 6.480469 -15.839844 7.589844 -16.53125 9.179688 -16.53125 C 10.769531 -16.53125 11.910156 -15.78125 11.910156 -14.371094 Z M 11.910156 -14.371094" transform="translate(198.686 175.57)"/></g></g></g><g fill="#FFFEFE"><g><g><path d="M 17.429688 -21.238281 L 0.988281 -21.238281 L 0.988281 -16.441406 L 6.660156 -16.441406 L 6.660156 0 L 11.789062 0 L 11.789062 -16.441406 L 17.429688 -16.441406 Z M 17.429688 -21.238281" transform="translate(217.466 175.57)"/></g></g></g><g fill="#FFFEFE"><g><g><path d="M 1.53125 -10.46875 C 1.53125 -4.289062 6.390625 0.300781 12.390625 0.300781 C 18.390625 0.300781 23.28125 -4.378906 23.28125 -10.46875 C 23.28125 -16.648438 18.390625 -21.328125 12.390625 -21.328125 C 6.390625 -21.328125 1.53125 -16.648438 1.53125 -10.46875 Z M 6.628906 -10.46875 C 6.628906 -14.460938 9.511719 -16.410156 12.390625 -16.410156 C 15.269531 -16.410156 18.121094 -14.429688 18.121094 -10.46875 C 18.121094 -6.539062 15.210938 -4.558594 12.328125 -4.558594 C 9.449219 -4.558594 6.628906 -6.511719 6.628906 -10.46875 Z M 6.628906 -10.46875" transform="translate(236.276 175.57)"/></g></g></g><g fill="#FFFEFE"><g><g><path d="M 9.660156 -21.179688 L 1.5 -21.179688 L 1.5 0 L 6.601562 0 L 6.601562 -7.109375 L 7.441406 -7.109375 L 11.820312 0 L 17.28125 0 L 17.28125 -0.960938 L 12.78125 -7.621094 C 15.539062 -8.941406 16.890625 -11.640625 16.890625 -14.191406 C 16.890625 -17.671875 14.460938 -21.179688 9.660156 -21.179688 Z M 9.539062 -11.761719 L 6.601562 -11.761719 L 6.601562 -16.261719 L 9.539062 -16.261719 C 11.101562 -16.261719 11.878906 -15.089844 11.878906 -13.980469 C 11.878906 -12.898438 11.070312 -11.761719 9.539062 -11.761719 Z M 9.539062 -11.761719" transform="translate(261.086 175.57)"/></g></g></g><g fill="#FFFEFE"><g><g><path d="M 7.890625 -8.460938 L 7.890625 0 L 13.019531 0 L 13.019531 -8.488281 L 20.550781 -20.460938 L 20.550781 -21 L 14.878906 -21 L 12.960938 -17.910156 L 10.46875 -13.351562 L 8.101562 -17.640625 L 6 -21 L 0.359375 -21 L 0.359375 -20.519531 Z M 7.890625 -8.460938" transform="translate(279.326 175.57)"/></g></g></g></svg>